<?xml version="1.0" standalone="no"?>
<!DOCTYPE svg PUBLIC "-//W3C//DTD SVG 20010904//EN"
 "http://www.w3.org/TR/2001/REC-SVG-20010904/DTD/svg10.dtd">
<svg version="1.0" xmlns="http://www.w3.org/2000/svg"
 width="454.000000pt" height="454.000000pt" viewBox="0 0 454.000000 454.000000"
 preserveAspectRatio="xMidYMid meet">
<metadata>
Created by potrace 1.14, written by Peter Selinger 2001-2017
</metadata>
<g transform="translate(0.000000,454.000000) scale(0.100000,-0.100000)"
fill="#000000" stroke="none">
<path d="M2202 3643 c-147 -146 -275 -311 -380 -494 -32 -56 -62 -101 -66
-101 -4 0 -56 27 -115 61 -59 33 -152 80 -207 105 -88 38 -292 112 -335 121
-9 2 -34 8 -55 14 -61 17 -71 14 -83 -21 -18 -55 -59 -230 -67 -283 -3 -27 -8
-59 -11 -70 -18 -90 -25 -437 -11 -545 43 -322 151 -568 339 -775 l64 -69 -45
25 c-25 14 -74 43 -110 63 -79 45 -89 51 -162 99 -31 20 -59 37 -62 37 -8 0
-186 120 -340 230 -144 102 -406 308 -491 383 -21 20 -41 35 -43 33 -2 -2 1
-37 7 -78 50 -344 192 -709 377 -968 51 -71 208 -240 223 -240 3 0 14 -8 23
-18 24 -25 40 -37 61 -45 11 -4 15 -12 11 -18 -5 -8 -3 -9 6 -4 7 4 15 3 19
-2 3 -5 23 -17 44 -27 20 -9 35 -21 32 -25 -2 -5 3 -15 13 -22 15 -13 16 -12
3 4 -18 23 -1 22 44 -3 20 -11 42 -20 50 -20 8 0 15 -5 15 -10 0 -6 3 -9 8 -8
15 4 82 -13 78 -21 -3 -4 8 -6 23 -5 15 1 43 -4 63 -10 19 -7 42 -12 52 -10 9
1 16 -1 16 -5 0 -4 19 -7 42 -8 70 -1 79 -3 74 -11 -3 -5 1 -9 9 -9 8 0 12 4
9 9 -3 4 2 8 11 8 9 0 13 -5 9 -11 -5 -8 -2 -9 12 -1 15 8 24 7 39 -6 13 -12
16 -12 8 -2 -10 13 -2 15 60 15 40 0 75 -4 79 -10 5 -6 8 -5 8 2 0 9 16 12 54
10 30 -1 52 1 50 5 -3 4 5 6 16 5 11 -1 20 -8 21 -17 0 -9 4 -6 9 8 11 27 26
28 42 2 7 -11 16 -20 21 -20 4 0 6 4 3 9 -4 5 -3 11 1 14 5 2 2 2 -4 1 -7 -2
-13 2 -13 7 0 7 11 9 25 7 14 -3 25 -1 25 4 0 6 7 8 15 5 8 -4 17 -2 20 3 4 6
16 3 31 -6 13 -9 24 -12 24 -6 0 6 -3 12 -7 15 -5 2 -3 2 4 1 7 -2 15 1 18 6
13 21 34 10 29 -16 -3 -16 -1 -23 6 -19 5 3 10 15 10 25 0 14 5 18 17 13 10
-4 14 -2 10 4 -4 7 0 10 10 9 10 -2 21 2 25 8 6 8 8 7 8 -1 0 -7 7 -10 15 -7
8 4 13 9 10 13 -2 4 2 8 10 8 8 0 15 -4 15 -9 0 -4 -4 -8 -10 -8 -5 0 -25 -16
-44 -35 -20 -19 -32 -35 -27 -35 5 0 19 11 32 24 13 13 34 26 47 30 12 4 20
12 17 17 -3 5 1 6 9 3 9 -3 16 -10 16 -16 0 -5 -4 -7 -8 -4 -4 2 -14 1 -22 -5
-13 -7 -13 -9 -1 -9 11 0 9 -4 -5 -15 -18 -14 -17 -14 9 -4 15 7 27 15 27 19
0 4 14 10 30 12 30 5 57 -13 47 -30 -3 -4 5 -8 18 -8 13 0 22 3 20 6 -6 9 9
28 25 32 8 2 21 10 27 18 11 13 12 12 6 -5 -6 -18 -5 -18 10 -7 17 15 38 8 36
-11 0 -9 -2 -9 -6 1 -2 6 -9 12 -14 12 -6 0 -7 -5 -3 -12 4 -7 3 -8 -4 -4 -7
4 -12 2 -12 -4 0 -6 12 -8 31 -5 18 3 28 2 24 -4 -3 -6 4 -8 17 -5 51 11 89
11 84 -1 -2 -6 2 -12 9 -12 8 0 13 8 12 16 -1 13 -12 16 -49 16 -26 0 -48 -4
-48 -9 0 -4 -7 -3 -15 4 -11 9 -12 16 -2 31 11 18 12 18 19 -2 4 -11 12 -17
18 -14 6 4 7 12 3 18 -4 7 5 4 19 -5 17 -11 29 -14 33 -8 3 6 1 10 -4 10 -6 0
-11 5 -11 12 0 6 11 1 24 -11 24 -22 24 -22 35 -3 6 11 7 23 3 27 -4 5 -1 5 6
1 8 -5 9 -13 3 -24 -4 -9 -6 -24 -4 -32 4 -13 3 -13 -6 0 -13 18 -14 1 -2 -19
7 -11 11 -10 19 5 5 11 7 25 5 32 -5 13 19 17 31 5 3 -4 16 -8 27 -10 14 -2
18 1 13 9 -6 10 -4 11 7 1 17 -17 32 -17 23 0 -5 8 -2 8 9 -2 9 -7 17 -19 17
-25 0 -6 -5 -4 -10 4 -8 12 -10 12 -10 1 0 -11 -3 -11 -15 -1 -8 7 -15 8 -15
3 0 -5 -7 -10 -15 -10 -8 0 -11 5 -8 11 3 6 3 8 -2 4 -4 -4 -17 -3 -28 3 -14
8 -17 8 -13 0 4 -6 2 -19 -4 -30 -7 -14 -7 -22 0 -26 6 -4 10 -3 9 2 -5 28 17
40 37 20 4 -4 13 -2 21 4 10 9 18 8 33 -6 10 -9 25 -15 32 -12 8 3 6 6 -5 6
-10 1 -15 6 -12 11 4 7 12 7 24 0 10 -5 22 -6 26 -2 5 4 6 0 3 -9 -4 -9 -1
-16 7 -16 8 0 11 7 7 15 -4 11 -1 13 8 7 9 -5 11 -4 6 4 -4 6 -12 8 -18 5 -7
-5 -8 -2 -3 7 8 12 6 12 -8 0 -15 -12 -17 -11 -17 5 0 16 -2 17 -10 4 -8 -13
-10 -12 -10 3 0 18 15 23 25 8 3 -6 14 -8 25 -6 12 2 18 0 15 -5 -3 -4 13 -7
35 -5 25 2 38 -1 34 -7 -4 -6 1 -8 14 -4 13 4 22 1 25 -8 8 -20 -43 -17 -61 4
-10 12 -10 10 0 -14 7 -15 14 -24 16 -18 2 6 14 9 26 6 14 -2 29 3 37 13 10
11 10 14 2 9 -7 -4 -13 -2 -13 3 0 12 27 10 48 -2 7 -5 9 -13 6 -19 -4 -7 -2
-8 5 -4 6 4 9 11 7 15 -4 6 104 7 124 1 3 -1 35 -1 72 -1 61 0 66 -1 63 -20
-2 -11 0 -17 6 -14 5 4 7 11 4 16 -8 11 7 16 67 23 37 4 46 2 42 -9 -3 -7 -1
-16 4 -19 5 -3 9 2 8 10 0 9 6 18 14 19 8 2 24 7 34 11 15 6 17 4 11 -7 -7
-12 -6 -12 7 -1 9 7 31 15 50 17 18 2 64 13 103 24 38 11 73 17 77 15 4 -3 8
0 8 6 0 6 5 8 10 5 6 -3 10 -1 10 5 0 7 6 10 14 7 8 -3 16 -1 18 4 2 5 16 11
31 13 15 1 30 6 35 11 4 4 1 5 -5 1 -7 -4 -13 -5 -13 -1 0 7 53 28 60 23 3 -2
4 -7 2 -11 -1 -5 2 -6 8 -2 6 3 7 11 4 17 -4 6 0 14 7 19 23 14 32 10 18 -8
-13 -16 -12 -17 3 -4 10 7 16 17 13 21 -6 10 66 56 80 52 6 -2 7 -1 3 3 -4 4
20 30 54 58 170 143 335 394 443 677 62 162 124 404 141 549 6 54 6 55 -12 36
-11 -10 -68 -60 -129 -110 -300 -250 -711 -532 -1012 -696 l-78 -43 58 63
c186 203 287 444 332 791 5 45 6 347 1 380 -2 14 -7 52 -11 85 -5 50 -19 133
-41 250 -2 11 -14 56 -26 100 -23 78 -24 80 -53 79 -124 -4 -507 -157 -703
-281 -29 -18 -54 -33 -57 -33 -3 0 -17 24 -31 53 -76 148 -231 360 -375 511
-56 58 -105 106 -110 106 -5 0 -39 -30 -77 -67z m363 -2663 c3 -5 1 -10 -4
-10 -6 0 -11 5 -11 10 0 6 2 10 4 10 3 0 8 -4 11 -10z m-330 -12 c4 4 0 -6
-10 -21 -14 -21 -20 -25 -26 -15 -14 21 -10 28 9 21 15 -6 16 -5 2 13 -14 17
-13 18 1 7 9 -7 19 -9 24 -5z"/>
<path d="M690 1060 c0 -5 5 -10 11 -10 5 0 7 5 4 10 -3 6 -8 10 -11 10 -2 0
-4 -4 -4 -10z"/>
<path d="M3880 1060 c-9 -6 -10 -10 -3 -10 6 0 15 5 18 10 8 12 4 12 -15 0z"/>
<path d="M3795 999 c-3 -4 2 -6 10 -5 21 3 28 13 10 13 -9 0 -18 -4 -20 -8z"/>
<path d="M676 973 c-6 -14 -5 -15 5 -6 7 7 10 15 7 18 -3 3 -9 -2 -12 -12z"/>
<path d="M830 981 c0 -6 4 -13 10 -16 6 -3 7 1 4 9 -7 18 -14 21 -14 7z"/>
<path d="M3755 980 c3 -5 8 -10 11 -10 2 0 4 5 4 10 0 6 -5 10 -11 10 -5 0 -7
-4 -4 -10z"/>
<path d="M1961 923 c-16 -18 -25 -33 -21 -33 5 0 15 9 23 20 8 11 16 18 19 15
3 -3 12 3 21 13 14 16 15 19 2 19 -8 0 -28 -15 -44 -34z"/>
<path d="M1906 941 c-4 -5 -2 -12 3 -15 5 -4 12 -2 15 3 4 5 2 12 -3 15 -5 4
-12 2 -15 -3z"/>
<path d="M2151 937 c-8 -10 -7 -14 2 -14 8 0 14 6 14 14 0 7 -1 13 -2 13 -2 0
-8 -6 -14 -13z"/>
<path d="M2256 938 c3 -4 9 -8 15 -8 5 0 9 4 9 8 0 5 -7 9 -15 9 -8 0 -12 -4
-9 -9z"/>
<path d="M3507 939 c7 -7 15 -10 18 -7 3 3 -2 9 -12 12 -14 6 -15 5 -6 -5z"/>
<path d="M3540 946 c0 -2 8 -10 18 -17 15 -13 16 -12 3 4 -13 16 -21 21 -21
13z"/>
<path d="M1837 933 c-13 -12 -7 -22 12 -20 15 1 17 4 9 14 -12 15 -13 15 -21
6z"/>
<path d="M2045 929 c-4 -6 -5 -12 -2 -15 2 -3 7 2 10 11 7 17 1 20 -8 4z"/>
<path d="M1015 920 c3 -5 8 -10 11 -10 2 0 4 5 4 10 0 6 -5 10 -11 10 -5 0 -7
-4 -4 -10z"/>
<path d="M1113 915 c0 -8 4 -12 9 -9 5 3 6 10 3 15 -9 13 -12 11 -12 -6z"/>
<path d="M2734 903 c1 -19 5 -28 10 -23 6 6 5 18 -1 32 -10 21 -10 21 -9 -9z"/>
<path d="M2861 904 c0 -11 3 -14 6 -6 3 7 2 16 -1 19 -3 4 -6 -2 -5 -13z"/>
<path d="M3793 905 c0 -8 4 -12 9 -9 5 3 6 10 3 15 -9 13 -12 11 -12 -6z"/>
<path d="M1786 901 c-3 -5 2 -8 12 -7 9 0 16 -5 14 -12 -1 -8 2 -11 7 -7 6 3
8 12 4 20 -6 17 -29 20 -37 6z"/>
<path d="M2590 906 c0 -2 7 -7 16 -10 8 -3 12 -2 9 4 -6 10 -25 14 -25 6z"/>
<path d="M1189 883 c-13 -16 -12 -17 4 -4 16 13 21 21 13 21 -2 0 -10 -8 -17
-17z"/>
<path d="M1473 885 c0 -8 4 -12 9 -9 5 3 6 10 3 15 -9 13 -12 11 -12 -6z"/>
<path d="M1850 891 c0 -6 4 -13 10 -16 6 -3 7 1 4 9 -7 18 -14 21 -14 7z"/>
<path d="M2573 885 c0 -8 4 -12 9 -9 5 3 6 10 3 15 -9 13 -12 11 -12 -6z"/>
<path d="M2976 883 c-6 -14 -5 -15 5 -6 7 7 10 15 7 18 -3 3 -9 -2 -12 -12z"/>
<path d="M3034 889 c-3 -6 -2 -15 3 -20 5 -5 9 -1 9 11 0 23 -2 24 -12 9z"/>
<path d="M1596 878 c3 -5 10 -6 15 -3 13 9 11 12 -6 12 -8 0 -12 -4 -9 -9z"/>
<path d="M2847 879 c7 -7 15 -10 18 -7 3 3 -2 9 -12 12 -14 6 -15 5 -6 -5z"/>
<path d="M2900 880 c-9 -6 -10 -10 -3 -10 6 0 15 5 18 10 8 12 4 12 -15 0z"/>
<path d="M3330 880 c0 -5 5 -10 11 -10 5 0 7 5 4 10 -3 6 -8 10 -11 10 -2 0
-4 -4 -4 -10z"/>
<path d="M1434 848 l-19 -23 23 19 c21 18 27 26 19 26 -2 0 -12 -10 -23 -22z"/>
</g>
</svg>
